<svg width="1007" height="887" viewBox="0 0 1007 887" fill="none" xmlns="http://www.w3.org/2000/svg">
<path fill-rule="evenodd" clip-rule="evenodd" d="M116.199 599.68C115.911 589.215 118.217 579.14 122.517 569.964L110.804 567.066C99.0827 564.149 96.6441 563.537 92.0749 582.419L91.8255 583.65C91.471 585.511 91.3153 587.28 91.4322 588.682C101.011 590.828 109.487 594.804 116.199 599.68V599.68ZM173.204 608.494C171.801 613.694 172.386 619.434 175.276 624.443C178.155 629.413 182.814 632.778 188.026 634.176C199.248 637.171 210.7 630.565 213.704 619.356C215.106 614.137 214.522 608.397 211.643 603.384C208.761 598.411 204.094 595.053 198.894 593.671C193.67 592.269 187.94 592.845 182.938 595.743C177.956 598.605 174.594 603.267 173.204 608.494V608.494ZM170.89 574.781C160.034 581.04 152.765 591.081 149.769 602.212C146.785 613.366 148.063 625.674 154.311 636.481C160.579 647.328 170.609 654.6 181.758 657.595C206.408 664.196 230.497 650.397 237.138 625.611C240.122 614.465 238.848 602.177 232.596 591.35C226.34 580.503 216.294 573.227 205.154 570.252C194.017 567.257 181.7 568.542 170.89 574.781ZM434.579 533.474L434.684 533.416C440.021 529.65 446.281 527.983 453.215 529.097C464.203 530.861 476.493 540.344 488.031 561.516C501.883 586.952 520.153 604.498 539.15 622.733L539.871 623.422C552.628 624.828 564.984 625.557 576.928 625.654C658.871 626.328 730.004 599.143 782.315 557.318C825.444 522.838 855.735 478.454 868.609 431.674C817.7 501.545 773.281 544.107 725.049 557.621C604.448 591.404 535.126 448.757 475.368 462.154C466.642 464.113 458.571 468.359 451.82 474.271C445.054 480.183 439.6 487.821 436.172 496.502C431.794 507.536 430.785 520.322 434.579 533.474V533.474ZM444.879 449.236L403.954 378.383L365.14 457.664L308.252 368.674L276.556 412.672L254.64 405.603C254.726 380.552 245.05 358.458 228.249 338.478C215.652 323.522 199.014 309.642 179.405 296.59C190.99 363.412 167.809 408.871 135.746 471.696C128.563 485.768 120.92 500.739 113.059 517.233L108.135 522.491L99.0826 527.714L105.331 540.847C107.349 541.283 109.487 541.786 111.785 542.362L157.268 467.915L158.448 466.283C192.307 427.141 230.236 446.977 269.326 467.401C279.82 472.888 290.408 478.438 300.948 482.567L317.874 489.203L285.254 522.916C284.553 523.644 284.233 524.641 284.233 525.642C284.233 526.565 284.494 527.504 284.962 528.329V528.384C285.34 529.038 285.838 529.576 286.407 529.879C286.984 530.191 287.872 530.249 289.083 529.922C315.638 522.686 342.169 525.389 368.693 536.045C385.513 542.779 402.287 552.765 419.017 565.434C419.173 563.627 419.403 561.863 419.699 560.137C405.383 534.97 405.068 509.093 413.595 487.575C418.433 475.365 426.177 464.538 435.892 456.051C438.716 453.578 441.719 451.292 444.879 449.236V449.236ZM500.828 438.179C490.314 436.072 479.909 436.336 470.05 438.545C465.723 439.507 461.508 440.87 457.453 442.556L475.925 396.12L500.828 438.179ZM243.944 746.149C264.363 738.433 268.527 750.966 268.874 752.676C269.221 754.382 269.162 756.189 268.636 757.977C267.051 763.328 261.021 768.477 248.953 770.833C242.783 772.029 238.463 772.718 234.871 773.295C213.587 776.671 209.992 777.267 199.903 796.694C180.173 797.73 167.567 808.861 154.973 820.016C147.514 826.598 140.054 833.207 131.714 835.875L113.34 841.767L126.635 855.738C137.394 867.067 149.867 873.84 164.159 875.683C175.323 877.124 187.313 875.453 200.179 870.464C206.533 877.295 213.848 881.828 221.549 884.399C230.006 887.223 238.739 887.643 247.122 886.163C255.283 884.726 263.163 881.466 270.124 876.859C277.265 872.154 283.466 865.954 288.055 858.795C297.579 861.311 308.139 860.54 318.006 857.183C329.443 853.265 340.214 845.736 347.323 835.758C348.226 834.508 349.072 833.207 349.851 831.859C364.385 827.349 375.818 824.241 385.638 821.554C442.565 805.963 454.516 802.684 457.09 737.798C477.136 731.407 484.977 736.684 497.602 745.148C502.978 748.762 509.027 752.828 516.397 756.898C532.092 765.579 548.02 766.42 561.642 761.891C570.859 758.857 578.961 753.369 585.19 746.203C591.379 739.107 595.758 730.254 597.565 720.482C600.28 705.756 597.133 689.099 585.517 673.298C579.105 664.566 572.541 656.788 565.923 649.591C569.534 649.727 573.133 649.801 576.733 649.825C664.569 650.569 741.024 621.276 797.405 576.199C854.254 530.748 890.801 469.18 898.331 405.911C899.203 398.62 899.682 391.053 899.741 383.283L877.592 376.444C817.198 466.439 769.086 520.131 718.505 534.3C669.431 548.04 615.394 524.181 541.772 459.779L471.682 341.376L446.721 404.088L402.197 326.977L362.34 408.392L309.444 325.633L274.628 373.951C271.383 362.22 266.323 351.105 259.658 340.527C284.724 316.648 314.886 298.814 344.444 289.486C363.442 283.496 382.046 281.101 398.644 282.963C414.362 284.743 428.261 290.386 438.833 300.544C446.425 307.858 452.482 317.665 456.448 330.241L458.902 338.034L467.113 338.665C513.9 342.279 548.932 355.907 574.594 377.522C600.175 399.08 616.871 428.929 626.94 464.943L629.928 475.614L640.792 473.617C741.534 455.113 791.944 398.675 806.825 337.746C814.424 306.611 812.648 274.418 803.521 245.527C794.344 216.484 777.629 190.588 755.437 172.349C718.657 142.08 667.452 132.709 610.86 163.824C594.118 173.039 579.222 185.883 571.665 202.584C565.105 217.06 564.12 233.878 572.066 252.935L574.216 258.099L579.514 259.828C593.292 264.303 599.458 271.08 600.436 277.701C600.982 281.385 600.012 285.245 597.967 288.719C595.703 292.54 592.197 295.819 587.924 297.934C579.623 302.062 568.237 301.657 556.917 292.345C522.014 263.61 506.924 231.514 506.347 199.99C505.876 174.538 514.757 149.063 530.249 125.741C546.1 101.84 568.794 80.2667 595.501 63.2352C649.058 29.0279 718.415 13.0792 780.932 32.8292C851.173 55.0408 911.423 114.856 947.393 190.047C971.961 241.399 985.151 299.85 982.443 358.36C979.744 416.544 961.256 474.824 922.474 526.238C867.588 599.03 771.879 658.229 622.601 684.491L626.777 708.389C782.802 680.94 883.485 618.184 941.826 540.847C983.729 485.289 1003.72 422.304 1006.63 359.416C1009.52 296.879 995.45 234.45 969.222 179.605C930.452 98.5796 864.967 33.9431 788.236 9.69854C718.474 -12.3572 641.571 5.11459 582.502 42.8309C552.936 61.7202 527.737 85.696 510.032 112.363C491.958 139.599 481.596 169.759 482.153 200.36C482.854 238.77 500.586 277.316 541.55 311.04C561.49 327.437 582.658 327.608 598.652 319.643C607.202 315.398 614.249 308.781 618.83 301.042C623.629 292.941 625.814 283.574 624.435 274.188C622.39 260.327 612.839 246.984 592.708 238.848C589.588 228.749 590.382 220.013 593.763 212.547C598.89 201.24 609.902 192.025 622.535 185.077C669.037 159.509 710.566 166.764 740.066 191.028C758.545 206.233 772.553 228.075 780.375 252.822C788.248 277.736 789.802 305.42 783.293 332.044C770.995 382.414 729.517 429.408 647.005 447.666C635.378 411.866 617.101 381.744 590.145 359.015C562.121 335.405 525.065 320.122 476.836 315.188C471.663 302.214 464.433 291.582 455.622 283.095C440.964 269.024 422.203 261.23 401.305 258.87C345.406 252.572 284.245 284.556 245.085 320.987C225.542 298.413 198.594 278.566 166.956 260.459L149.31 274.394C171.244 348.729 148.024 394.242 114.115 460.702C107.31 474.041 100.08 488.21 92.745 503.45L67.573 517.981L80.42 544.968C75.9403 550.424 72.528 560.289 68.5469 576.721L68.0094 579.105C66.8836 584.954 66.8173 591.155 68.3131 596.455C70.4439 603.984 75.2274 609.74 83.5869 611.754C83.9413 611.871 84.2413 611.949 84.6075 612.003C93.45 613.694 100.684 617.53 105.245 622.044C107.205 623.964 108.517 625.884 109.067 627.613C109.257 628.205 109.324 628.606 109.269 628.747C109.02 629.226 108.241 629.837 106.866 630.546C86.2085 641.221 69.1039 650.763 53.5029 662.814C37.6332 675.086 23.6955 689.675 9.8592 710.115L9.89039 710.134C3.63832 719.392 0.444012 730.044 0.0427894 740.353C-0.26884 748.415 1.12576 756.341 4.09013 763.313C10.35 778.035 23.0918 787.518 39.1524 788.153C136.206 791.931 217.899 758.066 243.944 746.149V746.149ZM955.659 618.99C963.146 611.906 970.364 604.498 977.298 596.841C984.352 589.028 990.881 581.196 996.88 573.379L977.605 558.657C971.786 566.26 965.689 573.574 959.355 580.6C953.096 587.529 946.329 594.442 939.041 601.332L955.659 618.99V618.99ZM119.837 314.806C119.272 308.835 118.408 302.888 117.235 296.953C116.047 290.963 114.469 284.645 112.51 277.989L89.2507 284.821C90.9335 290.522 92.3164 296.111 93.3993 301.603C94.5056 307.149 95.2612 312.29 95.7131 317.092L119.837 314.806V314.806ZM63.7477 483.735C70.14 470.333 76.3999 458.069 82.2625 446.552C101.868 408.139 117.41 377.694 120.145 340.951L95.9431 339.144C93.563 370.995 78.998 399.52 60.6158 435.53C54.6442 447.242 48.2792 459.72 41.809 473.289L63.7477 483.735V483.735ZM644.664 759.2C704.419 748.7 757.018 733.534 803.011 714.687C852.194 694.532 893.711 670.151 928.282 642.701L913.18 623.715C880.287 649.84 840.73 673.049 793.806 692.281C749.559 710.426 698.65 725.051 640.484 735.286L644.664 759.2V759.2ZM466.786 573.091C482.453 601.869 502.016 620.642 522.361 640.185C537.019 654.272 552.137 668.788 565.974 687.619C573.266 697.543 575.33 707.544 573.745 716.105C572.771 721.44 570.34 726.301 566.881 730.274C563.465 734.188 559.06 737.202 554.058 738.858C546.454 741.366 537.335 740.774 528.06 735.648C521.286 731.906 515.879 728.28 511.08 725.051C490.326 711.116 478.324 703.054 440.808 717.966L433.391 720.926L433.169 728.926C431.716 783.869 423.816 786.038 379.284 798.209C367.217 801.512 352.952 805.407 337.736 810.224L332.446 811.899C330.997 815.295 329.759 818.695 327.597 821.725C323.499 827.466 317.114 831.859 310.223 834.22C303.73 836.447 297.069 836.778 291.954 834.589C291.023 834.2 290.147 833.701 289.34 833.129L276.026 823.626L270.833 839.154C268.512 846.126 263.319 852.326 256.752 856.661C252.545 859.442 247.816 861.401 242.946 862.269C238.288 863.091 233.598 862.9 229.239 861.444C223.707 859.601 218.409 855.625 214 848.961L208.157 840.093L198.586 844.798C186.662 850.636 176.226 852.86 167.193 851.691C163.968 851.267 160.859 850.386 157.864 849.039C162.472 845.662 166.741 841.9 171.007 838.118C181.372 828.942 191.742 819.786 206.236 821.052L214.444 821.76L218.141 814.318C225.589 799.265 226.57 799.113 238.673 797.193C242.939 796.499 248.092 795.693 253.507 794.638C275.96 790.264 287.942 778.089 291.876 764.808C293.528 759.2 293.699 753.443 292.589 747.932C291.475 742.402 289.11 737.245 285.694 732.844C277.323 722.06 262.719 715.435 244.789 719.349C243.379 719.676 242.132 720.272 240.286 721.156C227.057 727.473 142.524 767.955 40.0133 763.943C33.399 763.714 28.927 759.796 26.3833 753.829C24.7979 750.102 24.0617 745.744 24.2331 741.194C24.2525 740.813 24.2681 740.408 24.2993 740.007C28.7361 739.177 34.4662 738.203 40.1379 737.3C49.3154 735.839 57.9671 734.612 60.1952 734.593C61.4028 734.57 63.5919 736.626 65.8395 738.741C72.2124 744.766 78.8189 751.005 92.1021 750.145C103.702 749.412 109.421 744.556 115.315 739.547C121.621 734.188 125.883 731.232 132.634 737.245C139.275 743.173 145.582 748.797 159.905 744.961C173.118 741.409 177.208 733.596 181.142 726.091C182.381 723.727 183.569 721.441 184.878 721.094C188.879 720.023 193.152 721.117 197.059 722.134C203.798 723.882 209.98 725.452 217.88 722.749C224.985 720.311 228.814 716.07 232.779 711.649C235.121 709.063 237.571 706.333 240.559 705.893C247.111 704.915 257.316 707.065 267.522 709.196C291.981 714.34 295.199 714.858 320.706 701.309C329.798 696.472 339.259 691.44 346.953 691.572C356.781 691.747 364.751 696.16 370.056 702.532C373.476 706.625 375.825 711.536 376.912 716.662C377.968 721.635 377.804 726.761 376.23 731.427C374.041 737.911 368.888 743.784 360.177 747.414C355.293 749.451 351.83 748.415 348.62 747.434C341.25 745.21 334.394 743.134 323.249 748.894C311.372 755.017 310.527 763.098 309.53 772.64C309.004 777.746 308.369 783.849 300.103 789.228C293.279 793.679 288.9 793.641 284.265 793.586C273.435 793.469 261.788 793.352 238.385 811.763L250.425 833.032C251.232 832.475 252.027 831.859 252.806 831.248C269.969 817.616 277.284 817.694 284.074 817.772C292.453 817.87 300.38 817.944 313.285 809.535C331.262 797.847 332.552 785.462 333.627 775.113C333.888 772.64 334.106 770.549 334.347 770.416C336.708 769.201 339.069 769.914 341.604 770.681C348.803 772.851 356.539 775.191 369.472 769.797C385.291 763.196 394.874 751.909 399.186 739.107C402.181 730.235 402.544 720.774 400.623 711.711C398.742 702.804 394.632 694.24 388.653 687.062C379.121 675.623 364.875 667.694 347.323 667.386C333.26 667.137 321.049 673.625 309.32 679.861C301.026 684.281 293.049 688.522 287.615 688.367C282.967 687.693 277.705 686.583 272.446 685.489C260.102 682.899 247.746 680.305 237.053 681.898C225.378 683.642 219.956 689.675 214.752 695.432C212.944 697.445 211.191 699.385 210.007 699.809C208.839 700.191 206.053 699.482 203.031 698.715C196.147 696.931 188.622 694.992 178.618 697.679C167.107 700.752 163.469 707.696 159.706 714.897C158.207 717.756 156.652 720.732 153.637 721.518C151.958 721.982 150.404 720.599 148.764 719.139C132.135 704.319 115.798 707.334 99.6709 721.059C96.8662 723.423 94.1512 725.744 90.5791 725.974C87.7745 726.145 85.0593 723.575 82.426 721.117C76.6103 715.626 70.9737 710.309 60.0005 710.407C56.5725 710.446 47.1652 711.692 37.4813 713.227C47.3093 700.343 57.3243 690.482 68.3053 681.975C82.3676 671.09 98.4399 662.167 117.956 652.084C124.06 648.921 128.267 644.676 130.803 639.741C132.933 635.578 133.779 631.2 133.467 626.764L146.388 619.684C138.033 604.557 139.17 589.293 146.065 577.103C149.933 570.252 155.558 564.301 162.308 559.752C169.145 555.164 177.119 551.994 185.607 550.806C203.202 548.352 223.209 554.49 240.231 573.975C249.233 584.288 260.417 587.93 272.15 587.548C285.347 587.104 298.806 581.251 309.896 574.61L297.474 553.836C289.255 558.77 279.711 563.093 271.39 563.362C266.533 563.514 261.971 562.093 258.438 558.062C235.296 531.554 207.3 523.297 182.284 526.81C170.091 528.52 158.639 533.05 148.838 539.651C143.213 543.437 138.106 547.908 133.709 552.94L177.399 481.414C198.679 457.781 227.961 473.06 258.123 488.841C263.997 491.894 269.895 494.983 275.796 497.861L267.896 506.02C262.454 511.644 260.024 518.69 260.043 525.642C260.063 530.802 261.426 535.893 263.903 540.29L263.931 540.27C266.506 544.816 270.276 548.695 275.021 551.23C280.805 554.338 287.79 555.433 295.448 553.341C316.623 547.581 338.052 549.828 359.683 558.506C382.307 567.584 405.282 583.669 428.541 604.997L447.461 590.446C441.548 579.159 441.684 565.722 445.646 557.318C446.557 555.394 447.578 553.953 448.622 553.224C448.895 553.053 449.159 552.959 449.42 552.995C453.53 553.649 459.338 559.444 466.786 573.091" fill="#FF8800"/>
</svg>
